# Made in Blockbench 4.11.2
mtllib i_insulator_floor.mtl

o i_2
v 0.5312500000000001 0 0.46875
v 0.4687500000000001 0 0.46875
v 0.4687500000000001 0.625 0.46875
v 0.5312500000000001 0.625 0.46875
v 0.5312500000000001 0 0.53125
v 0.5312500000000001 0.625 0.53125
v 0.4687500000000001 0 0.53125
v 0.4687500000000001 0.625 0.53125
vt 0.43750000000000006 1
vt 0.375 1
vt 0.375 0.375
vt 0.43750000000000006 0.375
vt 0.18125000000000036 1
vt 0.18125000000000036 0.9375
vt 0.8062500000000004 0.9375
vt 0.8062500000000004 1
vt 0.375 0.375
vt 0.43750000000000006 0.375
vt 0.43750000000000006 1
vt 0.375 1
vt 0.8062500000000004 0.9375
vt 0.8062500000000004 1
vt 0.18125000000000036 1
vt 0.18125000000000036 0.9375
vt 0.43750000000000006 1
vt 0.375 1
vt 0.375 0.9375
vt 0.43750000000000006 0.9375
vt 0 0.9375
vt 0.06250000000000006 0.9375
vt 0.06250000000000006 1
vt 0 1
vn 0 0 -1
vn 1 0 0
vn 0 0 1
vn -1 0 0
vn 0 1 0
vn 0 -1 0
usemtl m_b4aa4a95-3d8c-34ff-9832-adc2cdcc29d3
f 1/1/1 2/2/1 3/3/1 4/4/1
f 5/5/2 1/6/2 4/7/2 6/8/2
f 7/9/3 5/10/3 6/11/3 8/12/3
f 2/13/4 7/14/4 8/15/4 3/16/4
f 8/17/5 6/18/5 4/19/5 3/20/5
f 2/21/6 1/22/6 5/23/6 7/24/6