# Made in Blockbench 4.11.2
mtllib i_insulator_ceiling.mtl

o i_2
v 0.5312500000000001 0.90625 0.53125
v 0.5312500000000001 0.90625 0.46875
v 0.5312500000000001 0.21875 0.53125
v 0.5312500000000001 0.21875 0.46875
v 0.4687500000000001 0.90625 0.46875
v 0.4687500000000001 0.90625 0.53125
v 0.4687500000000001 0.21875 0.46875
v 0.4687500000000001 0.21875 0.53125
vt 0.43750000000000006 0.3125
vt 0.375 0.3125
vt 0.375 1
vt 0.43750000000000006 1
vt 0.8687500000000004 1
vt 0.8687500000000004 0.9375
vt 0.18125000000000036 0.9375
vt 0.18125000000000036 1
vt 0.375 1
vt 0.43750000000000006 1
vt 0.43750000000000006 0.3125
vt 0.375 0.3125
vt 0.18125000000000036 0.9375
vt 0.18125000000000036 1
vt 0.8687500000000004 1
vt 0.8687500000000004 0.9375
vt 0.43750000000000006 0.9375
vt 0.375 0.9375
vt 0.375 1
vt 0.43750000000000006 1
vt 0 1
vt 0.06250000000000006 1
vt 0.06250000000000006 0.9375
vt 0 0.9375
vn 0 0 -1
vn 1 0 0
vn 0 0 1
vn -1 0 0
vn 0 1 0
vn 0 -1 0
usemtl m_ad3d8878-c207-7f80-1da3-50670d8c8f1d
f 4/4/1 7/3/1 5/2/1 2/1/1
f 3/8/2 4/7/2 2/6/2 1/5/2
f 8/12/3 3/11/3 1/10/3 6/9/3
f 7/16/4 8/15/4 6/14/4 5/13/4
f 6/20/5 1/19/5 2/18/5 5/17/5
f 7/24/6 4/23/6 3/22/6 8/21/6
o wire_connection1
v 0.53125 0.1875 0.53125
v 0.53125 0.1875 0.46875
v 0.53125 0.15625 0.53125
v 0.53125 0.15625 0.46875
v 0.46875 0.1875 0.46875
v 0.46875 0.1875 0.53125
v 0.46875 0.15625 0.46875
v 0.46875 0.15625 0.53125
vt 0 1
vt 0.07499999999999996 1
vt 0.07499999999999996 0.96875
vt 0 0.96875
vt 0 1
vt 0.0625 1
vt 0.0625 0.96875
vt 0 0.96875
vt 0 1
vt 0.07499999999999996 1
vt 0.07499999999999996 0.96875
vt 0 0.96875
vt 0 1
vt 0.0625 1
vt 0.0625 0.96875
vt 0 0.96875
vt 0 1
vt 0.07499999999999996 1
vt 0.07499999999999996 0.9375
vt 0 0.9375
vt 0 1
vt 0.07499999999999996 1
vt 0.07499999999999996 0.9375
vt 0 0.9375
vn 0 0 -1
vn 1 0 0
vn 0 0 1
vn -1 0 0
vn 0 1 0
vn 0 -1 0
usemtl m_ad3d8878-c207-7f80-1da3-50670d8c8f1d
f 12/28/7 15/27/7 13/26/7 10/25/7
f 11/32/8 12/31/8 10/30/8 9/29/8
f 16/36/9 11/35/9 9/34/9 14/33/9
f 15/40/10 16/39/10 14/38/10 13/37/10
f 14/44/11 9/43/11 10/42/11 13/41/11
f 15/48/12 12/47/12 11/46/12 16/45/12
o bracket_connection1
v 0.546875 1 0.525
v 0.546875 1 0.475
v 0.546875 0.859375 0.525
v 0.546875 0.859375 0.475
v 0.453125 1 0.475
v 0.453125 1 0.525
v 0.453125 0.859375 0.475
v 0.453125 0.859375 0.525
vt 0 1
vt 0.09375 1
vt 0.09375 0.859375
vt 0 0.859375
vt 0 1
vt 0.04999999999999999 1
vt 0.04999999999999999 0.859375
vt 0 0.859375
vt 0 1
vt 0.09375 1
vt 0.09375 0.859375
vt 0 0.859375
vt 0 1
vt 0.04999999999999999 1
vt 0.04999999999999999 0.859375
vt 0 0.859375
vt 0 1
vt 0.09375 1
vt 0.09375 0.95
vt 0 0.95
vn 0 0 -1
vn 1 0 0
vn 0 0 1
vn -1 0 0
vn 0 -1 0
usemtl m_f89680e1-4dcb-6f4d-fd97-d66ddb55961e
f 20/52/13 23/51/13 21/50/13 18/49/13
f 19/56/14 20/55/14 18/54/14 17/53/14
f 24/60/15 19/59/15 17/58/15 22/57/15
f 23/64/16 24/63/16 22/62/16 21/61/16
f 23/68/17 20/67/17 19/66/17 24/65/17
o wire_connection2
v 0.515625 0.21875 0.515625
v 0.515625 0.21875 0.484375
v 0.515625 0.1875 0.515625
v 0.515625 0.1875 0.484375
v 0.484375 0.21875 0.484375
v 0.484375 0.21875 0.515625
v 0.484375 0.1875 0.484375
v 0.484375 0.1875 0.515625
vt 0 1
vt 0.07499999999999996 1
vt 0.07499999999999996 0.96875
vt 0 0.96875
vt 0 1
vt 0.03125 1
vt 0.03125 0.96875
vt 0 0.96875
vt 0 1
vt 0.07499999999999996 1
vt 0.07499999999999996 0.96875
vt 0 0.96875
vt 0 1
vt 0.03125 1
vt 0.03125 0.96875
vt 0 0.96875
vt 0 1
vt 0.07499999999999996 1
vt 0.07499999999999996 0.96875
vt 0 0.96875
vt 0 1
vt 0.07499999999999996 1
vt 0.07499999999999996 0.96875
vt 0 0.96875
vn 0 0 -1
vn 1 0 0
vn 0 0 1
vn -1 0 0
vn 0 1 0
vn 0 -1 0
usemtl m_ad3d8878-c207-7f80-1da3-50670d8c8f1d
f 28/72/18 31/71/18 29/70/18 26/69/18
f 27/76/19 28/75/19 26/74/19 25/73/19
f 32/80/20 27/79/20 25/78/20 30/77/20
f 31/84/21 32/83/21 30/82/21 29/81/21
f 30/88/22 25/87/22 26/86/22 29/85/22
f 31/92/23 28/91/23 27/90/23 32/89/23